<svg xmlns="http://www.w3.org/2000/svg" width="350" height="350">
  <defs>
    <marker orient="auto" refY="0" refX="0" id="a" overflow="visible">
      <path d="M-.5 0l-1-1L2 0l-3.5 1z"/>
    </marker>
  </defs>
  <path d="M178.5 278.1l-10.9-5.7c-1.2-1-2.6-1.8-4-2.5-1.2-.4-4.7-4.5-10.4-12.4a36 36 0 0 1 -7.4-25.2c.5-3 1.2-6 1.6-6.4.4-.4-.1-3.1-1.2-6-3.5-9-3-14.1 2-24.3 2.5-5 4.4-10.5 4.3-12.1 0-2.9 0-5.7.3-8.6.6-7.5 4.7-12.1 13.8-15.5l6.3-2.4.3-5c.3-3.6 1.5-7 3.4-10.1 2.7-4.6 3.7-5.4 9.2-7.7 9.6-4 35.4 4 56.5 10.9 2.2.7 19.1 9 24 10.4 5.3 1.4 8.4.2 10.4-4 1.1-2.4 3.7-13 7.8-32.5 2.8-13.6 5.4-17 21.3-28.3 9.5-6.8 12.3-8 17.9-7.7 13.5.5 19 15.2 9.4 25a31.6 31.6 0 0 0 -7.5 19.4c-.1 3-.6 7.4-1.2 9.9-1 5.2-.7 11.5 1.6 27.1 1.7 9.3 1.9 18.8.5 28.1-1.5 7.8.3 30.9 3.4 45.8 1.1 5.2 3.5 11.7 8.1 21.6 5.6 11.3 9.4 23.5 11.2 36l-7.5 1.4-2.6-10.9a92 92 0 0 0 -8.2-22.5c-3-6-5.4-12.1-7.6-18.4a176.5 176.5 0 0 1 -4.6-56.4c1-8 .4-16.4-2.2-32.8a59 59 0 0 1 0-21.4c.5-3.2 1-8.1 1-10.9 0-4.7 3.7-12.8 10.6-23.4 2.7-4.1 1.2-8.5-3-9.3-4.5-.9-5.3-.5-14 5.5-15.3 10.8-16.2 12.3-20.4 31.8-4.8 22.7-6.1 26.9-9.2 30.3-4.3 4.8-11 6.5-17.7 4.5a290 290 0 0 1 -24.6-10.6c-12.7-6-41.7-14.2-46.8-12.7-4.8 1.4-9 4.8-10.2 8.2-3.2 10.4 1 18.9 8 26.4 6.6 5.5 27.4 16.6 33.1 17.6 5.6 1 6.8.8 9-1.4 1.3-1.3 1.3-2.6 0-6.7-1.2-4.4-2.8-6.6-10-14.3-9.4-10-13.9-17.8-10-17.4h4.3c1.2 0 2.5.6 2.8 1.4.3.9 1.6 2.8 3 4.2l12.5 13.3c4.2 5.5 7.4 15.5 6.2 20-.5 1.9-1.4 3.6-2.7 5.1-1.3 1.3-1.6 2.4-.8 3.2.6.7 1.9 3.3 2.9 5.7 1.4 3.6 1.6 5.6.7 10.5-1.4 8.3-3.2 10.2-11 11.8l-6 1.3 2 5.8c3.6 10.4-.4 17.4-11.7 20.7-5.2 1.6-6.4 2.2-6 3.4.7 2.6-1.1 9.8-3.4 13.3-1.4 2-3.1 3.7-5.2 4.9l-3 1.5 8.9 9.8c9.2 8.2 15.7 9.8 27.7 14 19.3 6.7 29.2 3 34.6 10 2.4 3 12.2 9 12 9.3l-2 2.3c-.5.6-.4.3-2.4 3 0 0-9.2-4.6-14-10.1-2.2-2.6-13.6-1.7-31.1-6.7-15.4-4.3-20.8-8.7-30-15.5-7.7-5.8-10-10.1-15.2-13l-6.9-3.6m20.9-12c3-7-.4-11.4-12-15.5-9.5-3.2-18.4-7.8-26.5-13.5-4.1-2.8-6.7-4-7.1-3.3-1.5 2.6 1.7 12.6 6 18.7 6.2 9.2 8.8 11.5 17.3 15.4 10.7 5 19.6 4.3 22.3-1.8zm19.3-22.2c1.7-3.2.2-8.5-4-13-2.5-2.8-4.7-4-10.3-5.2-4-.9-7.5-2-8-2.4-.5-.4-4.6-2-9.1-3.4a56.9 56.9 0 0 1 -26-15.7l-5.8-6.2-1.9 4.8c-1.7 4.4-1.7 5.5 0 11.4 1.4 4.8 4.4 8.5 7 12.7 3.8 3.8 19.8 12.8 28 15.6 4.9 1.6 11 3.9 13.6 5 4 1.6 5.5 1.7 9.9.4 4-1.1 5.5-2.1 6.6-4zm14.3-27.3c1.3-4 .5-8.6-2.2-11.8-1.7-2.2-4.3-3.4-9.9-4.8-5-1.3-12-4.5-21.1-9.6-13.8-7.8-19.6-12.7-22.9-19.2-2.6-5-4.5-5.8-9-3.7-7.3 3.5-8.4 6.5-6.8 18.7.8 6.6.8 6.6 6.8 13 6.8 7.2 9.5 8.7 26.3 14.6 13 4.5 18.9 6 27.4 6.4 7.3.4 10.3-.5 11.4-3.6z"/>
  <g fill="none" stroke="#000" stroke-width="9" stroke-linecap="round" marker-end="url(#a)">
  <path d="M85 338a68 28 23 1 0 -41-17"/>
  <path d="M73,304L185,27"/>
  </g>
</svg>
